<svg width="21" height="20" viewBox="0 0 21 20" fill="none" xmlns="http://www.w3.org/2000/svg">
<path d="M10.5 0C16.023 0 20.5 4.477 20.5 10C20.5 15.523 16.023 20 10.5 20C4.977 20 0.5 15.523 0.5 10C0.5 4.477 4.977 0 10.5 0ZM9.793 6.464L6.964 9.293C6.77653 9.48053 6.67121 9.73484 6.67121 10C6.67121 10.2652 6.77653 10.5195 6.964 10.707L9.793 13.536C9.98053 13.7235 10.2348 13.8288 10.5 13.8288C10.7652 13.8288 11.0195 13.7235 11.207 13.536L14.036 10.707C14.2235 10.5195 14.3288 10.2652 14.3288 10C14.3288 9.73484 14.2235 9.48053 14.036 9.293L11.207 6.464C11.0195 6.27653 10.7652 6.17121 10.5 6.17121C10.2348 6.17121 9.98053 6.27653 9.793 6.464Z" fill="#E8AA27"/>
</svg>
