<svg width="25" height="24" viewBox="0 0 25 24" fill="none" xmlns="http://www.w3.org/2000/svg">
<path opacity="0.5" d="M13.295 2H11.295C9.40898 2 8.46598 2 7.88098 2.586C7.29498 3.172 7.29498 4.114 7.29498 6V9.5H17.295V6C17.295 4.114 17.295 3.172 16.709 2.586C16.123 2 15.181 2 13.295 2Z" fill="#E8AA27"/>
<path fill-rule="evenodd" clip-rule="evenodd" d="M13.73 5.783C13.2895 5.54283 12.7957 5.41699 12.294 5.41699C11.7923 5.41699 11.2985 5.54283 10.858 5.783L6.064 8.397C5.59071 8.65503 5.19568 9.03582 4.92046 9.49933C4.64524 9.96284 4.5 10.4919 4.5 11.031V15.969C4.5 16.5081 4.64524 17.0372 4.92046 17.5007C5.19568 17.9642 5.59071 18.345 6.064 18.603L10.858 21.217C11.2985 21.4572 11.7923 21.583 12.294 21.583C12.7957 21.583 13.2895 21.4572 13.73 21.217L18.525 18.603C18.9983 18.345 19.3933 17.9642 19.6685 17.5007C19.9438 17.0372 20.089 16.5081 20.089 15.969V11.03C20.089 10.4909 19.9438 9.96184 19.6685 9.49833C19.3933 9.03482 18.9983 8.65403 18.525 8.396L13.73 5.783ZM12.294 10.5C12.01 10.5 11.82 10.84 11.44 11.523L11.342 11.699C11.234 11.893 11.18 11.989 11.096 12.053C11.012 12.117 10.906 12.141 10.697 12.188L10.507 12.232C9.768 12.399 9.399 12.482 9.312 12.764C9.224 13.047 9.475 13.341 9.978 13.929L10.108 14.081C10.252 14.248 10.323 14.331 10.355 14.435C10.387 14.539 10.377 14.65 10.355 14.873L10.335 15.076C10.259 15.861 10.221 16.254 10.451 16.428C10.681 16.602 11.026 16.443 11.717 16.125L11.896 16.043C12.092 15.953 12.19 15.908 12.294 15.908C12.398 15.908 12.497 15.953 12.693 16.043L12.872 16.125C13.562 16.444 13.908 16.602 14.138 16.428C14.368 16.254 14.33 15.861 14.254 15.076L14.234 14.873C14.212 14.65 14.201 14.539 14.234 14.435C14.266 14.332 14.337 14.248 14.48 14.081L14.61 13.929C15.114 13.341 15.365 13.047 15.277 12.764C15.189 12.482 14.82 12.399 14.083 12.232L13.892 12.188C13.682 12.141 13.577 12.118 13.493 12.053C13.409 11.989 13.355 11.893 13.247 11.699L13.149 11.523C12.769 10.841 12.579 10.5 12.294 10.5Z" fill="#E8AA27"/>
</svg>
